<?xml version="1.0" encoding="utf-8"?>
<!-- Generator: Adobe Illustrator 16.0.0, SVG Export Plug-In . SVG Version: 6.00 Build 0)  -->
<!DOCTYPE svg PUBLIC "-//W3C//DTD SVG 1.0//EN" "http://www.w3.org/TR/2001/REC-SVG-20010904/DTD/svg10.dtd">
<svg version="1.0" id="Layer_1" xmlns="http://www.w3.org/2000/svg" xmlns:xlink="http://www.w3.org/1999/xlink" x="0px" y="0px"
	 width="100px" height="100px" viewBox="0 0 100 100" enable-background="new 0 0 100 100" xml:space="preserve">
<path d="M70,10H30c-10.999,0-20,8.997-20,20v40c0,10.999,9.001,20,20,20h40c10.999,0,20-9.001,20-20V30C90,18.997,80.999,10,70,10z
	 M50,66.666c-9.206,0-16.667-7.464-16.667-16.666c0-9.206,7.461-16.667,16.667-16.667c9.202,0,16.667,7.461,16.667,16.667
	C66.667,59.202,59.202,66.666,50,66.666z M71.667,33.333c-2.764,0-5-2.239-5-5s2.236-5,5-5s5,2.239,5,5S74.431,33.333,71.667,33.333
	z"/>
</svg>
