<?xml version="1.0" encoding="utf-8"?>
<!-- Generator: Adobe Illustrator 16.0.0, SVG Export Plug-In . SVG Version: 6.00 Build 0)  -->
<!DOCTYPE svg PUBLIC "-//W3C//DTD SVG 1.0//EN" "http://www.w3.org/TR/2001/REC-SVG-20010904/DTD/svg10.dtd">
<svg version="1.0" id="Layer_1" xmlns="http://www.w3.org/2000/svg" xmlns:xlink="http://www.w3.org/1999/xlink" x="0px" y="0px"
	 width="100px" height="100px" viewBox="0 0 100 100" enable-background="new 0 0 100 100" xml:space="preserve">
<path d="M83.333,10H16.667C13.001,10,10,13.001,10,16.666v66.667C10,86.998,13.001,90,16.667,90h66.666
	C86.999,90,90,86.998,90,83.333V16.666C90,13.001,86.999,10,83.333,10z M58.333,66.666c-5.631,0-10.599-3.919-13.613-9.905
	L38.079,80l-6.412-1.833l12.857-45.003L50.938,35l-2.559,8.958C48.601,53.434,53.711,60,58.333,60c4.733,0,10-6.843,10-16.667
	c0-9.192-8.229-16.667-18.333-16.667c-10.11,0-18.333,7.475-18.333,16.667c0,2.988,0.879,5.794,2.402,8.223l-2.224,7.79
	C27.61,55.166,25,49.537,25,43.333C25,30.442,36.185,20,50,20c13.809,0,25,10.442,25,23.333S67.539,66.666,58.333,66.666z"/>
</svg>
